<?xml version="1.0" encoding="UTF-8" standalone="no"?>
<!DOCTYPE svg PUBLIC "-//W3C//DTD SVG 1.1//EN"
 "http://www.w3.org/Graphics/SVG/1.1/DTD/svg11.dtd">
<!-- Generated by graphviz version 12.2.1 (20241206.2353)
 -->
<!-- Pages: 1 -->
<svg width="491pt" height="476pt"
 viewBox="0.00 0.00 490.88 476.00" xmlns="http://www.w3.org/2000/svg" xmlns:xlink="http://www.w3.org/1999/xlink">
<g id="graph0" class="graph" transform="scale(1 1) rotate(0) translate(4 472)">
<polygon fill="white" stroke="none" points="-4,4 -4,-472 486.88,-472 486.88,4 -4,4"/>
<!-- 0 -->
<g id="node1" class="node">
<title>0</title>
<polygon fill="none" stroke="black" points="103.75,-324 0,-324 0,-288 103.75,-288 103.75,-324"/>
<text text-anchor="middle" x="51.88" y="-300.95" font-family="Times,serif" font-size="14.00">weaver_checker</text>
</g>
<!-- 1 -->
<g id="node2" class="node">
<title>1</title>
<polygon fill="none" stroke="black" points="213.12,-36 102.62,-36 102.62,0 213.12,0 213.12,-36"/>
<text text-anchor="middle" x="157.88" y="-12.95" font-family="Times,serif" font-size="14.00">weaver_common</text>
</g>
<!-- 0&#45;&gt;1 -->
<g id="edge1" class="edge">
<title>0&#45;&gt;1</title>
<path fill="none" stroke="black" d="M50.51,-287.76C48.12,-246.62 47.28,-140.97 93.88,-72 101.17,-61.2 111.29,-51.42 121.33,-43.29"/>
<polygon fill="black" stroke="black" points="123.43,-46.09 129.24,-37.22 119.17,-40.53 123.43,-46.09"/>
</g>
<!-- 2 -->
<g id="node3" class="node">
<title>2</title>
<polygon fill="none" stroke="black" points="326,-468 193.75,-468 193.75,-432 326,-432 326,-468"/>
<text text-anchor="middle" x="259.88" y="-444.95" font-family="Times,serif" font-size="14.00">weaver_codegen_test</text>
</g>
<!-- 3 -->
<g id="node4" class="node">
<title>3</title>
<polygon fill="none" stroke="black" points="267,-324 176.75,-324 176.75,-288 267,-288 267,-324"/>
<text text-anchor="middle" x="221.88" y="-300.95" font-family="Times,serif" font-size="14.00">weaver_forge</text>
</g>
<!-- 8 -->
<g id="node9" class="node">
<title>8</title>
<polygon fill="none" stroke="black" points="274.5,-252 169.25,-252 169.25,-216 274.5,-216 274.5,-252"/>
<text text-anchor="middle" x="221.88" y="-228.95" font-family="Times,serif" font-size="14.00">weaver_resolver</text>
</g>
<!-- 3&#45;&gt;8 -->
<g id="edge2" class="edge">
<title>3&#45;&gt;8</title>
<path fill="none" stroke="black" d="M221.88,-287.7C221.88,-280.41 221.88,-271.73 221.88,-263.54"/>
<polygon fill="black" stroke="black" points="225.38,-263.62 221.88,-253.62 218.38,-263.62 225.38,-263.62"/>
</g>
<!-- 4 -->
<g id="node5" class="node">
<title>4</title>
<polygon fill="none" stroke="black" points="334.5,-180 253.25,-180 253.25,-144 334.5,-144 334.5,-180"/>
<text text-anchor="middle" x="293.88" y="-156.95" font-family="Times,serif" font-size="14.00">weaver_diff</text>
</g>
<!-- 5 -->
<g id="node6" class="node">
<title>5</title>
<polygon fill="none" stroke="black" points="235.62,-180 80.12,-180 80.12,-144 235.62,-144 235.62,-180"/>
<text text-anchor="middle" x="157.88" y="-156.95" font-family="Times,serif" font-size="14.00">weaver_resolved_schema</text>
</g>
<!-- 6 -->
<g id="node7" class="node">
<title>6</title>
<polygon fill="none" stroke="black" points="213.12,-108 102.62,-108 102.62,-72 213.12,-72 213.12,-108"/>
<text text-anchor="middle" x="157.88" y="-84.95" font-family="Times,serif" font-size="14.00">weaver_semconv</text>
</g>
<!-- 5&#45;&gt;6 -->
<g id="edge3" class="edge">
<title>5&#45;&gt;6</title>
<path fill="none" stroke="black" d="M157.88,-143.7C157.88,-136.41 157.88,-127.73 157.88,-119.54"/>
<polygon fill="black" stroke="black" points="161.38,-119.62 157.88,-109.62 154.38,-119.62 161.38,-119.62"/>
</g>
<!-- 7 -->
<g id="node8" class="node">
<title>7</title>
<polygon fill="none" stroke="black" points="360.62,-108 259.12,-108 259.12,-72 360.62,-72 360.62,-108"/>
<text text-anchor="middle" x="309.88" y="-84.95" font-family="Times,serif" font-size="14.00">weaver_version</text>
</g>
<!-- 5&#45;&gt;7 -->
<g id="edge4" class="edge">
<title>5&#45;&gt;7</title>
<path fill="none" stroke="black" d="M195.84,-143.52C215.77,-134.34 240.41,-122.99 261.68,-113.2"/>
<polygon fill="black" stroke="black" points="263.14,-116.38 270.76,-109.01 260.21,-110.02 263.14,-116.38"/>
</g>
<!-- 6&#45;&gt;1 -->
<g id="edge5" class="edge">
<title>6&#45;&gt;1</title>
<path fill="none" stroke="black" d="M157.88,-71.7C157.88,-64.41 157.88,-55.73 157.88,-47.54"/>
<polygon fill="black" stroke="black" points="161.38,-47.62 157.88,-37.62 154.38,-47.62 161.38,-47.62"/>
</g>
<!-- 8&#45;&gt;4 -->
<g id="edge6" class="edge">
<title>8&#45;&gt;4</title>
<path fill="none" stroke="black" d="M239.67,-215.7C248.15,-207.45 258.46,-197.43 267.81,-188.35"/>
<polygon fill="black" stroke="black" points="270.22,-190.88 274.95,-181.4 265.34,-185.86 270.22,-190.88"/>
</g>
<!-- 8&#45;&gt;5 -->
<g id="edge7" class="edge">
<title>8&#45;&gt;5</title>
<path fill="none" stroke="black" d="M206.05,-215.7C198.54,-207.47 189.4,-197.48 181.12,-188.42"/>
<polygon fill="black" stroke="black" points="183.87,-186.24 174.53,-181.22 178.7,-190.96 183.87,-186.24"/>
</g>
<!-- 9 -->
<g id="node10" class="node">
<title>9</title>
<polygon fill="none" stroke="black" points="321.12,-396 234.62,-396 234.62,-360 321.12,-360 321.12,-396"/>
<text text-anchor="middle" x="277.88" y="-372.95" font-family="Times,serif" font-size="14.00">weaver_emit</text>
</g>
<!-- 9&#45;&gt;3 -->
<g id="edge8" class="edge">
<title>9&#45;&gt;3</title>
<path fill="none" stroke="black" d="M264.03,-359.7C257.59,-351.64 249.79,-341.89 242.66,-332.98"/>
<polygon fill="black" stroke="black" points="245.48,-330.91 236.5,-325.29 240.02,-335.28 245.48,-330.91"/>
</g>
<!-- 10 -->
<g id="node11" class="node">
<title>10</title>
<polygon fill="none" stroke="black" points="482.88,-180 352.88,-180 352.88,-144 482.88,-144 482.88,-180"/>
<text text-anchor="middle" x="417.88" y="-156.95" font-family="Times,serif" font-size="14.00">weaver_otel_schema</text>
</g>
<!-- 10&#45;&gt;1 -->
<g id="edge9" class="edge">
<title>10&#45;&gt;1</title>
<path fill="none" stroke="black" d="M413.24,-143.82C406.88,-123.55 393.44,-90.31 369.88,-72 328.4,-39.77 269.78,-26.9 224.69,-21.88"/>
<polygon fill="black" stroke="black" points="225.05,-18.39 214.75,-20.89 224.35,-25.36 225.05,-18.39"/>
</g>
<!-- 10&#45;&gt;7 -->
<g id="edge10" class="edge">
<title>10&#45;&gt;7</title>
<path fill="none" stroke="black" d="M390.9,-143.52C377.27,-134.68 360.54,-123.84 345.83,-114.3"/>
<polygon fill="black" stroke="black" points="348.07,-111.59 337.78,-109.08 344.26,-117.46 348.07,-111.59"/>
</g>
<!-- 11 -->
<g id="node12" class="node">
<title>11</title>
<polygon fill="none" stroke="black" points="216.25,-396 79.5,-396 79.5,-360 216.25,-360 216.25,-396"/>
<text text-anchor="middle" x="147.88" y="-372.95" font-family="Times,serif" font-size="14.00">weaver_semconv_gen</text>
</g>
<!-- 11&#45;&gt;3 -->
<g id="edge11" class="edge">
<title>11&#45;&gt;3</title>
<path fill="none" stroke="black" d="M166.17,-359.7C174.97,-351.37 185.7,-341.22 195.37,-332.07"/>
<polygon fill="black" stroke="black" points="197.58,-334.8 202.44,-325.39 192.77,-329.72 197.58,-334.8"/>
</g>
<!-- 12 -->
<g id="node13" class="node">
<title>12</title>
<polygon fill="none" stroke="black" points="397.88,-468 343.88,-468 343.88,-432 397.88,-432 397.88,-468"/>
<text text-anchor="middle" x="370.88" y="-444.95" font-family="Times,serif" font-size="14.00">xtask</text>
</g>
<!-- 13 -->
<g id="node14" class="node">
<title>13</title>
<polygon fill="none" stroke="black" points="175.38,-468 120.38,-468 120.38,-432 175.38,-432 175.38,-468"/>
<text text-anchor="middle" x="147.88" y="-444.95" font-family="Times,serif" font-size="14.00">weaver</text>
</g>
<!-- 13&#45;&gt;0 -->
<g id="edge12" class="edge">
<title>13&#45;&gt;0</title>
<path fill="none" stroke="black" d="M119.94,-436.48C103.18,-427.55 82.87,-413.95 70.88,-396 58.92,-378.11 54.31,-354.07 52.61,-335.49"/>
<polygon fill="black" stroke="black" points="56.11,-335.44 51.96,-325.69 49.13,-335.9 56.11,-335.44"/>
</g>
<!-- 13&#45;&gt;9 -->
<g id="edge13" class="edge">
<title>13&#45;&gt;9</title>
<path fill="none" stroke="black" d="M175.76,-433.98C193.17,-424.61 215.92,-412.36 235.53,-401.8"/>
<polygon fill="black" stroke="black" points="236.97,-405 244.11,-397.18 233.65,-398.84 236.97,-405"/>
</g>
<!-- 13&#45;&gt;11 -->
<g id="edge14" class="edge">
<title>13&#45;&gt;11</title>
<path fill="none" stroke="black" d="M147.88,-431.7C147.88,-424.41 147.88,-415.73 147.88,-407.54"/>
<polygon fill="black" stroke="black" points="151.38,-407.62 147.88,-397.62 144.38,-407.62 151.38,-407.62"/>
</g>
</g>
</svg>
